<?xml version="1.0" standalone="no"?>
<!DOCTYPE svg PUBLIC "-//W3C//DTD SVG 20010904//EN"
 "http://www.w3.org/TR/2001/REC-SVG-20010904/DTD/svg10.dtd">
<svg version="1.0" xmlns="http://www.w3.org/2000/svg"
 width="1080.000000pt" height="1080.000000pt" viewBox="0 0 1080.000000 1080.000000"
 preserveAspectRatio="xMidYMid meet">

<g transform="translate(0.000000,1080.000000) scale(0.100000,-0.100000)"
fill="#000000" stroke="none">
<path d="M3815 9220 c-16 -5 -61 -16 -100 -24 -253 -57 -461 -261 -526 -514
-23 -92 -25 -249 -4 -340 58 -245 228 -431 478 -520 64 -23 87 -26 212 -26
161 -1 211 11 340 77 117 60 246 191 302 307 57 115 76 194 76 315 1 161 -32
273 -120 407 -66 101 -160 181 -278 238 -132 64 -307 101 -380 80z"/>
<path d="M6980 9209 c-179 -39 -294 -102 -408 -224 -230 -246 -254 -606 -61
-890 59 -86 103 -129 193 -189 129 -86 262 -121 426 -113 401 19 697 345 678
746 -10 193 -69 323 -212 467 -75 75 -106 98 -176 132 -47 23 -116 48 -155 57
-38 9 -86 20 -106 26 -48 12 -78 10 -179 -12z"/>
<path d="M3785 7399 c-584 -43 -1098 -395 -1344 -920 -87 -186 -122 -315 -147
-541 -14 -134 -14 -161 1 -320 31 -333 80 -513 242 -885 4 -10 -53 -13 -251
-15 l-255 -3 239 -352 c132 -194 240 -359 240 -366 0 -7 -107 -170 -239 -362
l-238 -350 862 -3 862 -2 124 -110 c68 -60 130 -110 136 -110 26 0 252 96 371
157 l122 63 610 0 611 0 -12 -22 c-21 -40 -323 -333 -434 -422 -141 -113 -341
-247 -478 -320 -59 -32 -109 -61 -111 -65 -3 -4 27 -36 66 -71 172 -154 473
-517 585 -705 l52 -87 22 44 c34 69 164 254 258 368 101 124 343 374 526 544
123 114 729 648 804 709 l34 27 859 0 c702 0 859 2 855 13 -3 7 -92 141 -199
298 -107 156 -213 312 -236 345 l-41 62 244 358 244 359 -259 3 -258 2 45 98
c183 391 257 904 183 1276 -95 479 -397 888 -830 1124 -215 117 -484 183 -750
183 -235 0 -395 -30 -605 -113 -100 -39 -247 -117 -309 -163 l-27 -21 66 -109
c174 -291 306 -619 380 -951 51 -227 66 -362 72 -634 5 -260 -1 -377 -34 -582
l-17 -108 -419 0 c-394 0 -418 1 -413 18 10 32 45 206 58 292 21 138 15 519
-10 660 -51 282 -250 778 -405 1007 -284 420 -687 655 -1202 703 -60 5 -117 9
-125 9 -8 -1 -64 -6 -125 -10z"/>
</g>
</svg>
