<svg version="1.1" id="Layer_1"
    xmlns="http://www.w3.org/2000/svg" viewBox="0 0 1383.59 463.37">
    <defs>
        <style>.st0{fill:#fff}</style>
    </defs>

    <path class="st0" d="M461.4 360.2c-1 .8-3.1 1.8-6.4 3-3.2 1.2-7.6 1.8-13.3 1.8-3.8 0-6.9-.7-9.4-2s-3.7-4.5-3.7-9.4c-.3-5.3-.8-10.4-1.3-15.1-.5-4.7-1.1-9.5-1.8-14.3-4.4.1-9.3.2-14.5.2-5.3 0-9.8.1-13.7.4-2 5.9-4.5 11.5-7.4 16.8-2.9 5.3-6.5 10.1-10.8 14.2-4.3 4.1-9.5 7.4-15.5 9.8-6 2.4-13.2 3.6-21.5 3.6-3.2 0-6.5-.3-9.8-.9-3.3-.6-6.3-1.6-9-3s-4.9-3.3-6.6-5.6c-1.7-2.3-2.5-5.2-2.5-8.7 0-1.6.7-3 2-4.3 1.4-1.3 3.1-1.9 5.1-1.9 3.4 0 5.6.9 6.6 2.7 1 1.8 2 3.8 2.9 6 .9 2.2 2.5 4.2 4.6 6 2.1 1.8 6 2.7 11.6 2.7 4.1 0 7.8-.8 11.3-2.4 3.5-1.6 6.7-3.7 9.5-6.2 2.9-2.5 5.4-5.3 7.5-8.4 2.1-3.1 3.9-6.1 5.2-9 1.5-3.5 2.5-5.9 3.1-7.2.5-1.3.9-2.3 1.3-3 0-.3-.3-.4-.8-.4-4.4.4-8.2.7-11.3.9-3.1.2-6.1.3-8.8.3-3.6 0-6.5-.2-8.9-.5-2.4-.3-3.6-1.6-3.6-3.7 0-1.2.7-2.2 2.2-2.9 1.4-.7 3.5-1.3 6.2-1.6 2.7-.3 5.9-.6 9.5-.8 3.6-.2 7.8-.4 12.3-.7 1.9-.1 3.5-.2 4.8-.3 1.4-.1 2.1-.3 2.3-.7 1.5-3.7 3-7.5 4.3-11.4 1.4-3.9 2.7-7.7 4.1-11.6 2.2-6.8 4.2-14.2 5.9-22.3 1.7-8.1 2.5-16 2.5-23.7 0-1.3 0-2.4-.1-3.3-.1-.9-.1-1.5-.1-1.9.8-.3 1.9-.4 3.3-.4s2.7-.1 4.1-.4c1.4-.3 3-.7 5-1.3 1.9-.6 4.2-.9 6.7-.9.9 0 2.3.2 4.2.5 2 .3 4 .8 6.1 1.4 2.1.6 3.9 1.3 5.6 2 1.6.7 2.5 1.5 2.5 2.3v31.8c0 10.5.7 20.7 2 30.5 1.4 9.8 3 18.5 4.8 26.2 1.9 7.7 3.9 13.9 6 18.8s4 7.7 5.7 8.3zM423.9 316c-.3-2.9-.8-6.4-1.4-10.4-.6-4-1.3-8.1-2.2-12.2-.9-4.1-1.7-8.1-2.5-12-.9-3.9-1.7-7.1-2.5-9.6-.5 1.1-1.2 2.9-2.2 5.4-.9 2.5-2 5.4-3.2 8.6-1.2 3.2-2.3 6.5-3.4 10s-2.2 6.7-3.2 9.6c-1 2.9-1.8 5.4-2.4 7.3-.6 1.9-.9 3-.9 3.3h23.9zM526.5 306.2c-.9 1.9-2.2 3.9-3.9 6.2-1.8 2.3-4.1 4.5-7 6.6 1.9 1.6 3.4 3.6 4.6 6 1.2 2.4 2.1 5 2.7 7.8.6 2.8 1 5.6 1.1 8.5.2 2.9.3 5.6.3 8.3 0 .7-.1 2.7-.4 6.1-.3 3.4-.8 7.4-1.5 12-.8 4.6-1.8 9.5-3.1 14.6s-2.9 9.9-4.8 14.2c-2 4.3-4.2 7.9-6.9 10.8-2.6 2.9-5.8 4.3-9.5 4.3-1.5 0-3.3-.3-5.3-.9-2-.6-4-1.3-6-2.2-2-.9-3.8-1.9-5.5-3.1-1.7-1.2-3-2.4-3.8-3.6-1.5-2.3-2.7-6.2-3.6-11.7-.9-5.5-1.3-13.1-1.3-22.7 0-5.2.3-10.7.8-16.4.5-5.7 1.1-12.2 1.8-19.4-1.2-.3-2.5-.6-3.9-1s-2.8-.9-4.2-1.5c-1.4-.6-2.5-1.4-3.4-2.4-.9-1-1.4-2.2-1.4-3.5 0-1.6.5-2.9 1.4-4 .9-1.1 2.2-1.9 3.7-2.6 1.5-.7 3.3-1.2 5.2-1.7 1.9-.5 3.9-.9 5.7-1.3.7-2.9 1.9-7 3.6-12.1 1.7-5.1 3.4-10.7 5.1-16.7 1.7-6 3.2-12 4.5-18.1 1.3-6.1 1.9-11.4 1.9-16.1 0-2.4-.2-4.5-.6-6.4-.4-1.9-1.5-3.8-3.2-5.8 1.5-.7 3.5-1.2 6-1.7s5.3-.7 8.5-.7c1.2 0 2.6.2 4.2.5s3.1.9 4.6 1.6c1.4.7 2.7 1.6 3.7 2.6s1.5 2.2 1.5 3.5c0 3.5-.8 7.1-2.3 10.8-1.5 3.7-3 7.9-4.3 12.6-.7 2.4-1.4 4.8-2.3 7.3-.9 2.5-1.9 5.3-3.1 8.6-1.2 3.3-2.5 7.2-4.1 11.7-1.5 4.5-3.4 10.2-5.6 17 2-.3 3.9-.5 5.6-.8 1.7-.3 3.6-.6 5.9-1 2.2-.4 4.7-.9 7.6-1.6 2.7-.6 6.4-1.5 11-2.6zm-15.2 36.6c0-.3-.1-1.3-.3-3.2-.2-1.9-.5-3.9-1-6s-1.2-4.1-2-5.8c-.9-1.7-2-2.6-3.3-2.6-.3 0-1.1.2-2.3.5-1.2.3-2.5.8-3.8 1.3l-5.1 2c-1 5.2-1.8 11.8-2.4 19.8-.6 8-1.1 18.5-1.6 31.6 0 .3 0 1.4.1 3.3s.3 4 .5 6.3c.3 2.3.8 4.3 1.5 6.2.8 1.9 1.7 2.8 2.9 2.8 2 0 3.9-1 5.6-3.1 1.7-2.1 3.1-4.7 4.3-7.8 1.2-3.1 2.2-6.6 3.2-10.3.9-3.7 1.7-7.2 2.2-10.4.5-3.2.9-5.9 1.1-8.2.3-2.3.4-3.5.4-3.8v-12.6z"/>
    <path class="st0" d="M589.6 306.2c-.9 1.9-2.2 3.9-3.9 6.2-1.8 2.3-4.1 4.5-7 6.6 1.9 1.6 3.4 3.6 4.6 6 1.2 2.4 2.1 5 2.7 7.8.6 2.8 1 5.6 1.1 8.5.2 2.9.3 5.6.3 8.3 0 .7-.1 2.7-.4 6.1-.3 3.4-.8 7.4-1.5 12-.8 4.6-1.8 9.5-3.1 14.6s-2.9 9.9-4.8 14.2c-2 4.3-4.2 7.9-6.9 10.8-2.6 2.9-5.8 4.3-9.5 4.3-1.5 0-3.3-.3-5.3-.9-2-.6-4-1.3-6-2.2-2-.9-3.8-1.9-5.5-3.1-1.7-1.2-3-2.4-3.8-3.6-1.5-2.3-2.7-6.2-3.6-11.7-.9-5.5-1.3-13.1-1.3-22.7 0-5.2.3-10.7.8-16.4.5-5.7 1.1-12.2 1.8-19.4-1.2-.3-2.5-.6-3.9-1s-2.8-.9-4.2-1.5c-1.4-.6-2.5-1.4-3.4-2.4-.9-1-1.4-2.2-1.4-3.5 0-1.6.5-2.9 1.4-4 .9-1.1 2.2-1.9 3.7-2.6 1.5-.7 3.3-1.2 5.2-1.7 1.9-.5 3.9-.9 5.7-1.3.7-2.9 1.9-7 3.6-12.1 1.7-5.1 3.4-10.7 5.1-16.7 1.7-6 3.2-12 4.5-18.1 1.3-6.1 1.9-11.4 1.9-16.1 0-2.4-.2-4.5-.6-6.4-.4-1.9-1.5-3.8-3.2-5.8 1.5-.7 3.5-1.2 6-1.7s5.3-.7 8.5-.7c1.2 0 2.6.2 4.2.5s3.1.9 4.6 1.6c1.4.7 2.7 1.6 3.7 2.6s1.5 2.2 1.5 3.5c0 3.5-.8 7.1-2.3 10.8-1.5 3.7-3 7.9-4.3 12.6-.7 2.4-1.4 4.8-2.3 7.3-.9 2.5-1.9 5.3-3.1 8.6-1.2 3.3-2.5 7.2-4.1 11.7-1.5 4.5-3.4 10.2-5.6 17 2-.3 3.9-.5 5.6-.8 1.7-.3 3.6-.6 5.9-1 2.2-.4 4.7-.9 7.6-1.6 2.7-.6 6.5-1.5 11-2.6zm-15.2 36.6c0-.3-.1-1.3-.3-3.2-.2-1.9-.5-3.9-1-6s-1.2-4.1-2-5.8c-.9-1.7-2-2.6-3.3-2.6-.3 0-1.1.2-2.3.5-1.2.3-2.5.8-3.8 1.3l-5.1 2c-1 5.2-1.8 11.8-2.4 19.8-.6 8-1.1 18.5-1.6 31.6 0 .3 0 1.4.1 3.3s.3 4 .5 6.3c.3 2.3.8 4.3 1.5 6.2.8 1.9 1.7 2.8 2.9 2.8 2 0 3.9-1 5.6-3.1 1.7-2.1 3.1-4.7 4.3-7.8 1.2-3.1 2.2-6.6 3.2-10.3.9-3.7 1.7-7.2 2.2-10.4.5-3.2.9-5.9 1.1-8.2.3-2.3.4-3.5.4-3.8v-12.6zM669.6 331.2c0 3.3-.8 7.1-2.3 11.2-1.5 4.1-3.9 8-7.1 11.5-3.2 3.5-7.3 6.5-12.3 8.9-5 2.4-11 3.6-17.9 3.6-6.6 0-12.2-.9-16.8-2.8-4.6-1.9-8.4-4.4-11.3-7.6-3-3.2-5.1-7-6.4-11.3-1.3-4.3-1.9-8.9-1.9-13.7 0-4.7.7-9.8 2-15.4 1.4-5.6 3.5-10.8 6.4-15.7 2.9-4.9 6.5-8.9 10.9-12.2 4.4-3.3 9.8-4.9 16-4.9 3.1 0 5.9.5 8.7 1.5 2.7 1 5.1 2.3 7.1 3.9s3.6 3.5 4.8 5.6c1.2 2.1 1.9 4.3 2 6.6l.3 2.8c0 3.2-.7 6.7-2 10.5-1.4 3.8-3.3 7.3-5.9 10.6-2.5 3.3-5.7 6-9.4 8.2-3.7 2.2-8 3.3-12.7 3.3-.9 0-1.9-.1-3.2-.2-1.3-.1-2.5-.3-3.7-.6v5.8c0 .9.4 2.3 1.1 4 .8 1.7 1.9 3.4 3.4 5.1 1.5 1.7 3.5 3.1 6 4.4 2.5 1.3 5.5 1.9 9 1.9 4.9 0 8.9-.8 12.1-2.3 3.1-1.5 5.7-3.5 7.8-5.9 2-2.4 3.6-5.1 4.7-8.1s2-5.9 2.7-8.7c.5-1.9 1-3.1 1.5-3.8.5-.7 1.4-1 2.5-1 2.5 0 3.8 1.1 3.8 3.4l.1 1.4zm-30.1-31c0-1.1-.4-2.2-1.1-3.4-.8-1.2-2.2-1.8-4.2-1.8-3.1 0-5.7 1.3-7.9 3.8s-4 5.4-5.5 8.7c-1.4 3.3-2.5 6.4-3.2 9.4-.7 3-1 5-1 5.9v.6c0 1.2.1 2.2.4 2.9.3.7 1.1 1.1 2.7 1.1h1.3c3.4 0 6.3-1 8.7-3 2.4-2 4.3-4.4 5.7-7.2 1.4-2.8 2.5-5.7 3.2-8.6.7-2.9 1-5.3 1-7.2l-.1-1.2z"/>
    <path class="st0" d="M739 344c-4.1 7.6-9.3 13.1-15.7 16.5-6.4 3.4-13.9 5.1-22.5 5.1h-2.4c-.8 0-1.6-.1-2.4-.2-4.2-.4-8.3-1.4-12.2-3.1-3.9-1.7-7.3-4-10.2-7-2.9-3-5.2-6.7-6.9-11-1.7-4.3-2.5-9.3-2.5-14.9 0-5.3.9-11 2.7-16.8 1.8-5.9 5.4-11.2 10.8-16 4.7-4.3 10.3-7.7 16.7-10.2 6.4-2.5 12.9-3.8 19.5-3.8 3.2 0 6.1.4 8.8 1.1 2.6.7 4.1 1.7 4.5 2.7.3 1.5.5 3.4.6 5.6.1 2.2.1 5.1.1 8.8 0 3.1-.3 5.3-.9 6.8-.6 1.5-1.8 2.2-3.7 2.2-2-.1-3.5-1-4.3-2.5-.9-1.5-1.7-3.2-2.5-5-.9-1.8-2-3.5-3.3-5-1.4-1.5-3.6-2.4-6.6-2.5-4.4 0-8.1 1.3-10.9 4-2.9 2.7-5.1 5.8-6.7 9.4-1.6 3.6-2.7 7.2-3.3 10.8-.6 3.6-.9 6.4-.9 8.4 0 7.7 1.5 14.4 4.5 19.9 3 5.5 8.3 8.6 15.9 9.1l2.8.2c5.3 0 9.5-1 12.7-3.1 3.2-2.1 5.8-4.3 7.8-6.8 1.9-2.5 3.5-4.7 4.6-6.8 1.1-2.1 2.2-3.1 3.4-3.1h.8c2.2.1 3.3 1.3 3.3 3.4-.3.7-.7 2.1-1.6 3.8z"/>
    <path class="st0" d="M744.4 325.8c.2-6.8.4-13.7.8-20.8.3-7.1.7-13.6 1-19.6 0-1.1-1.4-1.8-4.1-2.2-2.7-.4-5.8-.8-9.2-1.2-3.4-.4-6.4-1-9.2-1.9-2.7-.9-4.1-2.3-4.1-4.3 0-1.7 2.2-2.7 6.6-3 4.4-.3 10.9-.4 19.6-.4.7 0 1.1-.8 1.4-2.4.3-1.6.4-3.6.5-6.1.1-2.5.2-5.1.3-7.9.1-2.8.2-5.4.4-7.9s.5-4.5.9-6.1c.4-1.6 1-2.4 1.7-2.4.8 0 2.4.1 4.6.4 2.2.3 4.5.6 6.9 1.1 2.4.5 4.5 1 6.2 1.7 1.8.7 2.7 1.4 2.7 2.2l-2.8 26c0 .8.9 1.4 2.7 1.7 1.8.3 4.1.5 6.9.6 2.8.1 5.8.1 8.9.1 3.1 0 6.1.2 8.9.6 2.8.4 5.1 1 6.9 1.9 1.8.9 2.7 2.2 2.7 3.9 0 .3-.2.7-.5 1.3-.3.6-.8.9-1.3.9-.3 0-.8-.2-1.4-.6-.6-.4-2.2-.6-4.7-.6-.7 0-2.5.1-5.6.2-3.1.1-6.3.3-9.7.6-3.4.3-6.5.6-9.3.9-2.8.3-4.4.8-4.7 1.3-.2.3-.4 1.8-.6 4.7-.3 2.9-.5 6.6-.8 11.3-.3 4.7-.5 10-.6 16.1-.2 6.1-.3 12.4-.3 19.1 0 2.5.2 5 .5 7.4.3 2.4.8 4.6 1.5 6.5.7 1.9 1.6 3.5 2.7 4.7 1.1 1.2 2.4 1.8 3.9 1.8 2.2 0 4.2-.7 6.1-2.2 1.9-1.5 3.6-3.5 5.1-6 1.5-2.5 2.9-5.4 4.1-8.6 1.2-3.2 2.2-6.5 3.1-9.8.5-2 1.1-3.4 1.8-4.3.7-.9 1.7-1.3 3.1-1.3 1.2 0 2.2.3 3.2.9.9.6 1.4 2 1.4 4.1 0 1.3-.1 2.2-.3 2.6-.5 2.4-1.5 5.7-2.9 9.9s-3.4 8.3-5.9 12.4c-2.5 4.1-5.5 7.6-9 10.7-3.6 3.1-7.7 4.6-12.5 4.6-4.6 0-8.6-1-12-3.1-3.4-2.1-6.2-4.9-8.5-8.6-2.3-3.7-4-8-5.2-13-1.2-5-1.8-10.4-1.8-16.1l-.1-1.8z"/>
    <path class="st0" d="M828.6 269.4c0 .9-.6 1.7-1.8 2.3-1.2.6-2.5 1-3.9 1.3-1.4.3-2.8.5-4.2.6-1.4.1-2.2.2-2.5.2-3.6 0-7.1-.8-10.6-2.4-3.5-1.6-6.7-4.1-9.5-7.6-.3-.4-.9-.9-1.5-1.6-.7-.7-1-1.1-1-1.4 0-.7.6-1.3 1.9-1.8 1.3-.5 2.7-1.1 4.3-1.6 1.6-.5 3.1-.9 4.6-1.2 1.4-.3 2.4-.4 2.9-.4 3.4 0 6.7.7 10.1 2 3.3 1.3 6 3.8 8 7.4.3.4 1 1.1 1.9 2.1.9 1 1.3 1.7 1.3 2.1zm26 60.6c-.5 3.2-1.4 6.5-2.8 10s-3.3 6.7-5.7 9.7c-2.5 3-5.6 5.5-9.3 7.4-3.7 1.9-8.3 2.9-13.7 2.9-4.2 0-8.6-1.1-13-3.4-4.4-2.4-7.4-5.5-9-9.4-1.6-3.9-2.4-7.6-2.4-11.2 0-1.1.1-2.7.3-4.8.2-2.1.3-4.7.3-7.8v-22c0-1.1 0-2.2-.1-3.4-.1-1.2-.3-2.3-.6-3.4-.2-.5-.5-1.1-.9-1.8s-.6-1.1-.6-1.4c0-.5.4-1 1.3-1.3.8-.3 1.8-.6 2.8-.7 1-.1 2.5-.2 4.3-.2.5 0 1.7 0 3.6.1 1.9.1 3.8.3 5.9.7s3.9 1 5.5 1.9c1.6.9 2.4 2.1 2.4 3.7.2.4-.1 1.1-.9 2.2s-1.5 2.9-2.2 5.6c-.2 1.1-.3 2-.5 2.9-.2.9-.3 1.8-.5 2.9-.2 1.1-.3 2.4-.5 3.9s-.3 3.5-.5 5.9v12c0 2.1.1 4.3.3 6.5.2 2.2.5 4.2 1.1 6 .6 1.8 1.6 3.3 2.9 4.4 1.4 1.1 3.1 1.7 5.3 1.7 3.2 0 5.8-.7 7.6-2.2 1.9-1.5 3.3-2.7 4.3-3.8 1.9-2 3.3-4.5 4.3-7.5s1.9-6.1 2.8-9.3l.5-2c.5-2 2-3 4.6-3s3.8 1.4 3.8 4.2v1l-.7 3z"/>
    <path class="st0" d="M931.5 304.9c.7-.9 1.9-1.4 3.6-1.4.8 0 1.4.4 1.8 1.2.3.8.5 1.5.5 2-.2 4.1-1.3 7.8-3.4 11.1-2.1 3.3-4.4 6.1-6.7 8.5-1.4 1.5-2.8 2.8-4.5 4-1.6 1.2-3.3 2.3-5 3.4-.2 2.3-.3 3.8-.4 4.7-.1.9-.2 1.6-.4 2.1-.3 2-1.2 4.5-2.5 7.6-1.4 3.1-3.3 6.1-5.7 9-2.5 2.9-5.4 5.4-8.9 7.5-3.5 2.1-7.5 3.1-12.1 3.1-1.5 0-3.3-.1-5.2-.4-2-.3-3.9-.6-6-1.1-2-.5-4-1-5.9-1.6-1.9-.6-3.5-1.2-4.8-1.9-4.2-1.9-7.7-4.1-10.4-6.6s-4.8-5.2-6.2-8.1c-1.4-2.9-2.4-5.8-2.9-8.8-.5-3-.8-5.9-.8-8.7 0-4.8.6-9.6 1.9-14.6 1.3-4.9 2.8-9.6 4.7-14.2 1.9-4.5 4-8.6 6.4-12.2 2.4-3.6 4.7-6.4 6.9-8.4 2.2-1.9 4.7-3.2 7.4-3.9 2.7-.7 5.2-1.1 7.4-1.1 2.7 0 5.4.5 8.1 1.6 2.7 1.1 5.3 2.4 7.9 4 2.5 1.6 5 3.4 7.5 5.5s4.8 4.1 7 6.1c1.7 1.5 3 3.8 3.8 7.1.8 3.3 1.5 6.6 2 9.9.3 1.9.6 3.9.8 6 .2 2.1.3 4.3.3 6.6 2.5-1.6 4.6-3.3 6.1-5.1 1.5-1.8 2.8-3.5 3.7-5.1.9-1.6 1.7-3.1 2.3-4.5.3-1.4 1-2.5 1.7-3.3zm-30.1 33.5c-2 1.1-4.8 1.9-8.4 2.4-3.6.5-6.5.8-8.9.8-4.6 0-8.1-.3-10.6-.8s-5.1-1.6-8-3.2l-.3 4.2c0 1.5.3 3 .8 4.6.5 1.6 1.3 3.1 2.4 4.4 1.1 1.3 2.7 2.4 4.7 3.3 2 .9 4.6 1.3 7.6 1.3 3.7 0 6.9-.6 9.5-1.7 2.6-1.1 4.7-2.6 6.4-4.3 1.6-1.7 2.8-3.6 3.6-5.6.9-2 1.2-3.8 1.2-5.4zm1.2-20c-.1-1.9-.3-4.1-.5-6.6-.3-2.5-.7-5.2-1.3-7.9-.6-2.7-1.4-5.2-2.5-7.5s-2.5-4.2-4.2-5.7c-1.7-1.5-3.8-2.3-6.4-2.3-2.5 0-5 .8-7.4 2.4-2.4 1.6-4.5 3.7-6.4 6.2-1.9 2.5-3.4 5.4-4.5 8.6-1.1 3.2-1.7 6.3-1.7 9.4 0 5.3 1.4 9.2 4.1 11.7 2.7 2.5 7.4 3.7 14 3.7 4.9 0 8.9-.6 12.1-1.8 3.1-1.2 4.7-2.1 4.7-2.8V322c.1-.6.1-1.8 0-3.6z"/>
    <path class="st0" d="M969.4 318.4c-2.5 2.8-4.6 5.9-6.2 9.3-1.6 3.4-3 6.9-4.2 10.6-1.2 3.7-2.2 7.3-2.9 11-.8 3.7-1.6 7.2-2.4 10.5-.3.8-1.7 1.3-3.9 1.6-2.3.3-3.9.4-5 .4-3.1 0-5.6-.1-7.5-.4-2-.3-3.4-.9-4.5-1.9-1-1-1.8-2.5-2.3-4.6-.5-2.1-.9-4.8-1.3-8.3l3.3-59.4c0-1.7 1.2-2.6 3.6-2.6.8 0 2 .1 3.6.3 1.5.2 3.1.5 4.8.9 1.7.4 3.1.9 4.3 1.5 1.2.6 1.8 1.3 1.8 2.1V330c.2-.1.4-.7.8-1.6 1.2-2.4 2.6-5.4 4.3-8.9 1.7-3.5 3.6-6.9 5.6-10.1 2-3.2 4.2-5.9 6.5-8.2 2.3-2.3 4.6-3.4 7-3.4 3.1 0 5.4.6 7 1.7 1.6 1.1 2.8 2.6 3.7 4.3.8 1.7 1.4 3.6 1.5 5.6.2 2 .3 3.9.3 5.8 0 1.3-.2 3.5-.5 6.6-.3 3.1-.5 7.7-.5 13.8 0 3.5.4 6.6 1.3 9.4.8 2.8 2.5 4.2 5.1 4.2 1.9 0 3.6-.7 5.1-2 1.5-1.3 2.9-3 4.2-5 1.3-2 2.3-4.1 3.2-6.4.8-2.3 1.4-4.4 1.5-6.4.2-2.5 1.4-3.8 3.8-3.8 1.5 0 2.5.4 3.1 1.2.5.8.8 1.7.8 2.8v.4c-.2 2.7-.8 5.7-1.9 9-1.1 3.3-2.7 6.5-4.8 9.4-2.1 2.9-4.9 5.4-8.3 7.4-3.4 2-7.6 3-12.5 3-7.6 0-12.5-2.2-14.6-6.5-2.1-4.3-3.2-10.8-3.2-19.3l.3-14.6z"/>

</svg>